<?xml version="1.0" encoding="UTF-8" standalone="no"?>
<!-- Created with Inkscape (http://www.inkscape.org/) -->

<svg
   width="209.90198"
   height="209.90198"
   viewBox="0 0 55.536565 55.536565"
   version="1.1"
   id="svg1"
   xmlns="http://www.w3.org/2000/svg"
   xmlns:svg="http://www.w3.org/2000/svg">
  <defs
     id="defs1" />
  <g
     id="layer1"
     transform="translate(-168.85951,-381.80316)">
    <rect
       style="display:none;fill:#333333;stroke-width:4.99999;stroke-linecap:round;stroke-linejoin:round"
       id="rect1"
       width="1016"
       height="571.5"
       x="0"
       y="0" />
    <rect
       style="fill:#333333;fill-opacity:1;stroke:#ffffff;stroke-width:2;stroke-linecap:butt;stroke-linejoin:miter;stroke-dasharray:none;stroke-opacity:1"
       id="rect28"
       width="53.536568"
       height="53.536568"
       x="169.85951"
       y="382.80316" />
    <g
       id="g30"
       transform="translate(-1.1115588,0.97467547)">
      <path
         d="m 184.54946,402.80539 c -2.11666,0 -3.8515,0.51931 -5.20382,1.55804 -1.35231,1.01913 -2.20468,2.46968 -2.55746,4.35116 h 4.82141 c 0.15678,-0.66636 0.48985,-1.17634 0.99942,-1.52911 0.52916,-0.35278 1.1761,-0.52916 1.94045,-0.52916 0.92114,0 1.63655,0.25472 2.14612,0.76429 0.52917,0.48996 0.79375,1.18619 0.79375,2.08773 v 0.70538 H 183.256 c -2.11666,0 -3.76332,0.47003 -4.93924,1.41077 -1.17592,0.94074 -1.76371,2.27351 -1.76371,3.9982 0,1.64629 0.54888,2.97907 1.64641,3.99821 1.09753,0.99953 2.54756,1.49965 4.35064,1.49965 1.13672,0 2.12658,-0.23553 2.96933,-0.7059 0.84274,-0.47037 1.50887,-1.16607 1.99884,-2.08721 h 0.11782 v 2.46961 h 4.40955 v -11.08304 c 0,-2.19506 -0.65627,-3.89046 -1.96939,-5.08599 -1.31311,-1.21512 -3.15534,-1.82263 -5.52679,-1.82263 z m -1.05833,10.64224 h 3.9982 v 0.23513 c 0,0.72515 -0.17639,1.37156 -0.52917,1.93993 -0.33318,0.54876 -0.79386,0.98974 -1.38182,1.32292 -0.58796,0.31358 -1.25461,0.47077 -1.99936,0.47077 -0.76435,0 -1.37186,-0.17638 -1.82263,-0.52916 -0.43118,-0.37237 -0.64647,-0.87249 -0.64647,-1.49965 0,-0.58796 0.20544,-1.05799 0.61701,-1.41077 0.41158,-0.35278 0.99988,-0.52917 1.76424,-0.52917 z"
         style="font-family:'Funnel Sans';-inkscape-font-specification:'Funnel Sans Bold';baseline-shift:baseline;display:inline;overflow:visible;vector-effect:none;fill:#ffcc00;enable-background:accumulate;stop-color:#000000;stop-opacity:1"
         id="path29" />
      <path
         d="m 204.35755,396.07299 v 10.2247 h -9.9689 v 4.5992 h 9.9689 v 10.22315 h 2.30012 2.2996 v -10.22315 h 9.96839 v -2.30012 -2.29908 h -9.96839 v -10.2247 h -2.2996 z"
         style="fill:#ffcc00;stroke-linejoin:round"
         id="path27" />
    </g>
  </g>
</svg>
