<?xml version="1.0" encoding="UTF-8" standalone="no"?>
<!-- Created with Inkscape (http://www.inkscape.org/) -->

<svg
   width="634.99829"
   height="94.671875"
   viewBox="0 0 168.00996 25.0486"
   version="1.1"
   id="svg1"
   xmlns="http://www.w3.org/2000/svg"
   xmlns:svg="http://www.w3.org/2000/svg">
  <defs
     id="defs1" />
  <g
     id="layer1"
     transform="translate(-153.34084,-291.04889)">
    <rect
       style="display:none;fill:#333333;stroke-width:4.99999;stroke-linecap:round;stroke-linejoin:round"
       id="rect1"
       width="1016"
       height="571.5"
       x="0"
       y="0" />
    <g
       id="text1"
       style="font-weight:bold;font-size:35.2777px;-inkscape-font-specification:'sans-serif Bold';text-align:center;text-anchor:middle;white-space:pre;fill:none;stroke:#ffffff;stroke-width:4.99999;stroke-linecap:round;stroke-linejoin:round"
       aria-label="Ma   hWhiz">
      <path
         style="font-family:'Funnel Sans';-inkscape-font-specification:'Funnel Sans Bold';fill:#ffffff;stroke:none;stroke-width:5"
         d="m 153.34083,315.77338 v -23.81245 h 6.49698 l 6.17359,16.7863 h 0.1176 l 6.14419,-16.7863 h 6.46758 v 23.81245 h -4.85068 v -16.81571 h -0.11759 l -5.85022,16.81571 h -4.08633 l -5.82082,-16.81571 h -0.1176 v 16.81571 z"
         id="path36" />
      <path
         style="font-family:'Funnel Sans';-inkscape-font-specification:'Funnel Sans Bold';fill:#ffcc00;stroke:none;stroke-width:5"
         d="m 188.64795,316.09676 q -2.70462,0 -4.35091,-1.49931 -1.6463,-1.5287 -1.6463,-3.99814 0,-2.58703 1.76389,-3.99814 1.76388,-1.4111 4.93888,-1.4111 h 4.23332 v -0.70556 q 0,-1.35231 -0.79375,-2.08726 -0.76435,-0.76435 -2.14606,-0.76435 -1.14652,0 -1.94027,0.52916 -0.76435,0.52917 -0.99954,1.5287 h -4.82128 q 0.52916,-2.82221 2.55763,-4.35091 2.02847,-1.5581 5.20346,-1.5581 3.55717,0 5.52684,1.82268 1.96967,1.79328 1.96967,5.08587 v 11.08308 h -4.40971 v -2.46944 h -0.11759 q -0.73495,1.38171 -1.99907,2.08726 -1.26412,0.70556 -2.96921,0.70556 z m 1.02893,-3.70416 q 1.11713,0 1.99907,-0.47037 0.88195,-0.49977 1.38171,-1.32292 0.52917,-0.85254 0.52917,-1.94027 v -0.23518 h -3.99814 q -1.14653,0 -1.76388,0.52916 -0.61736,0.52917 -0.61736,1.41111 0,0.94074 0.64675,1.4993 0.67616,0.52917 1.82268,0.52917 z"
         id="path37" />
      <path
         style="font-family:'Funnel Sans';-inkscape-font-specification:'Funnel Sans Bold';fill:#ffffff;stroke:none;stroke-width:5"
         d="m 227.48274,315.77338 v -24.69439 h 4.76249 v 9.46618 h 0.11759 q 0.79375,-1.32291 2.08727,-2.02847 1.29351,-0.70555 3.028,-0.70555 1.91088,0 3.35138,0.94074 1.46991,0.94074 2.29305,2.61643 0.82315,1.64629 0.82315,3.82175 v 10.58331 h -4.76249 v -9.67197 q 0,-1.85208 -0.94074,-2.91041 -0.91134,-1.05833 -2.52823,-1.05833 -1.5875,0 -2.52824,1.05833 -0.94074,1.05833 -0.94074,2.91041 v 9.67197 z m 23.01867,0 -6.05601,-23.81245 h 5.08587 l 3.52777,15.81617 h 0.11759 l 4.20393,-15.81617 h 4.5273 l 4.38032,15.81617 h 0.11759 l 3.52777,-15.81617 h 5.08587 l -6.05601,23.81245 h -4.82128 l -4.43911,-16.37474 h -0.1176 l -4.26272,16.37474 z m 27.78117,0 v -24.69439 h 4.76249 v 9.46618 h 0.11759 q 0.79375,-1.32291 2.08726,-2.02847 1.29352,-0.70555 3.02801,-0.70555 1.91087,0 3.35138,0.94074 1.4699,0.94074 2.29305,2.61643 0.82314,1.64629 0.82314,3.82175 v 10.58331 h -4.76249 v -9.67197 q 0,-1.85208 -0.94073,-2.91041 -0.91135,-1.05833 -2.52824,-1.05833 -1.5875,0 -2.52823,1.05833 -0.94074,1.05833 -0.94074,2.91041 v 9.67197 z m 20.78445,0 v -17.63885 h 4.76249 v 17.63885 z m 2.38124,-19.37334 q -1.11713,0 -1.91087,-0.76435 -0.76435,-0.79375 -0.76435,-1.91088 0,-1.11712 0.76435,-1.88147 0.79374,-0.79375 1.91087,-0.79375 1.11713,0 1.88148,0.79375 0.79375,0.76435 0.79375,1.88147 0,1.11713 -0.79375,1.91088 -0.76435,0.76435 -1.88148,0.76435 z m 5.79144,19.37334 v -2.93981 l 8.08448,-10.8185 h -7.55531 v -3.88054 h 13.40552 v 2.93981 l -8.08447,10.81849 h 8.26086 v 3.88055 z"
         id="path38" />
    </g>
    <path
       d="m 210.45485,291.0489 v 10.2247 h -9.96838 v 4.5992 h 9.96838 v 10.2247 h 4.59972 v -10.2247 h 9.9689 v -2.2996 -2.2996 h -9.9689 v -10.2247 z"
       style="fill:#ffcc00;stroke-linejoin:round"
       id="path35" />
  </g>
</svg>
